<svg xmlns="http://www.w3.org/2000/svg" xmlns:xlink="http://www.w3.org/1999/xlink">
    <symbol viewBox="0 0 16 16" id="language">
        <g clip-path="url(#clip0_14986_272)">
            <path d="M14.1692 3.71888C12.7989 1.84023 11.0012 0.775068 8.6355 0.5C9.74223 1.7817 10.5035 3.16875 10.9895 4.71966C12.0962 4.49141 13.1444 4.19294 14.1692 3.71888Z" />
            <path d="M4.25006 5.52288C3.83001 5.41303 3.42197 5.30631 3.01989 5.18202C2.66058 5.06606 2.30606 4.93336 1.95173 4.80073C1.7517 4.72586 1.55173 4.65102 1.35101 4.57922C0.162292 6.66856 0.273551 9.63579 1.34515 11.3857C1.94399 11.1975 2.53794 11.0093 3.13731 10.8194L3.1384 10.8191C3.67559 10.6489 4.21745 10.4772 4.77076 10.303C4.45455 8.78132 4.4604 7.21285 4.77661 5.66193C4.59874 5.61407 4.42337 5.5682 4.25006 5.52288Z" />
            <path d="M12.9458 5.15847C12.3749 5.33989 11.8035 5.52147 11.2297 5.70289C11.5459 7.23625 11.5342 8.79301 11.2297 10.2971C12.3891 10.6658 13.5193 11.0228 14.6612 11.3798C15.7855 9.45435 15.7737 6.52809 14.6612 4.61432C14.0874 4.7957 13.5166 4.97709 12.9458 5.15847Z" />
            <path d="M5.7194 10.2269C5.39148 8.74034 5.40319 7.28307 5.70183 5.82579C5.94061 5.83983 6.17518 5.8565 6.40679 5.87296C6.9476 5.91139 7.47255 5.94869 7.99728 5.94869C8.52199 5.94869 9.0467 5.91141 9.58748 5.87298C9.81907 5.85652 10.054 5.83983 10.2927 5.82579C10.6148 7.25966 10.6031 8.72864 10.2869 10.221C8.75267 10.022 7.2536 10.0103 5.7194 10.2269Z" />
            <path d="M14.1693 12.2753C12.8107 14.1539 11.0072 15.2132 8.64145 15.5C9.73062 14.2242 10.5094 12.843 10.9837 11.2862C12.0846 11.4969 13.1269 11.8129 14.1693 12.2753Z" />
            <path d="M7.35894 0.5C4.99322 0.780921 3.18965 1.84608 1.78428 3.78326C2.88515 4.12271 3.92162 4.44459 4.99322 4.77819C5.49096 3.15704 6.26391 1.7817 7.35894 0.5Z" />
            <path d="M7.35894 15.5C4.99907 15.2191 3.20136 14.1598 1.78428 12.2167C2.13525 12.1085 2.47968 12.0021 2.82079 11.8967L2.82228 11.8962C3.55057 11.6711 4.26377 11.4508 4.99322 11.2277C5.49096 12.8312 6.2522 14.2183 7.35894 15.5Z"/>
            <path d="M10.0408 4.86013C9.60158 3.48479 8.92817 2.28503 7.99711 1.19646C7.06019 2.30258 6.38093 3.4965 5.95931 4.86013C7.33541 5.04156 8.67052 5.04741 10.0408 4.86013Z" />
            <path d="M8.00297 14.8035C7.07191 13.7208 6.39849 12.521 5.95931 11.1457C7.3237 10.9526 8.65881 10.9584 10.0466 11.1399C9.60744 12.5093 8.93403 13.7033 8.00297 14.8035Z" />
        </g>
        <defs>
            <clipPath id="clip0_14986_272">
                <rect width="16" height="16" />
            </clipPath>
        </defs>
    </symbol>
    <symbol viewBox="0 0 110 50" id="horizontal-dollar">
        <g clip-path="url(#clip0_14986_606)">
            <path d="M84.9487 1.00835C98.4546 1.00835 109.445 11.9983 109.445 25.5042C109.445 39.0101 98.4546 50 84.9487 50C71.4428 50 60.4529 39.0101 60.4529 25.5042C60.4529 11.9983 71.4428 1.00835 84.9487 1.00835ZM84.9487 48.2352C97.4822 48.2352 107.68 38.0376 107.68 25.5042C107.68 12.9707 97.4822 2.77312 84.9487 2.77312C72.4152 2.77312 62.2176 12.9707 62.2176 25.5042C62.2176 38.0376 72.4152 48.2352 84.9487 48.2352Z"/>
            <path d="M25.07 1.00694C25.5588 1.00694 25.9499 1.40309 25.9499 1.88673C25.9499 2.37037 25.5537 2.76655 25.07 2.76655C12.5366 2.76655 2.33898 12.9641 2.33898 25.4976C2.33898 38.0311 12.5366 48.2287 25.07 48.2287C25.5588 48.2287 25.9499 48.6248 25.9499 49.1085C25.9499 49.5921 25.5537 49.9883 25.07 49.9883C11.5641 49.9883 0.574219 38.9984 0.574219 25.4925C0.574219 11.9866 11.5641 0.996635 25.07 0.996635V1.00694Z"/>
            <path d="M80.2358 21.1715C80.2358 22.0719 80.8481 22.8539 81.7228 23.07L83.3846 23.4868V19.2112H82.2013C81.1208 19.2112 80.241 20.091 80.241 21.1715H80.2358Z"/>
            <path d="M86.5222 31.7858H87.7056C88.7861 31.7858 89.6659 30.906 89.6659 29.8256C89.6659 28.9252 89.0536 28.1431 88.1789 27.927L86.5171 27.5103V31.7858H86.5222Z"/>
            <path d="M84.9539 5.56665C73.9639 5.56665 65.0166 14.5088 65.0166 25.5039C65.0166 36.499 73.9588 45.4412 84.9539 45.4412C95.949 45.4412 104.891 36.499 104.891 25.5039C104.891 14.5088 95.949 5.56665 84.9539 5.56665ZM92.8156 22.3551H89.6719V20.7807C89.6719 19.9163 88.967 19.2063 88.0975 19.2063H86.5231V24.2691L88.9465 24.8762C91.2206 25.4473 92.8105 27.4797 92.8105 29.8258C92.8105 32.6402 90.5209 34.9298 87.7065 34.9298H86.5231V38.9121H83.3795V34.9298H81.8051C79.2017 34.9298 77.087 32.8151 77.087 30.2117V28.6373H80.2307V30.2117C80.2307 31.0761 80.9355 31.7861 81.8051 31.7861H83.3795V26.7233L80.9561 26.1162C78.682 25.5451 77.0922 23.5128 77.0922 21.1666C77.0922 18.3522 79.3817 16.0627 82.1961 16.0627H83.3795V12.0804H86.5231V16.0627H88.0975C90.7009 16.0627 92.8156 18.1773 92.8156 20.7807V22.3551Z"/>
            <path d="M24.6945 0.977932L83.8117 0.977932C84.3005 0.977932 84.6915 1.37409 84.6915 1.85772C84.6915 2.34136 84.2954 2.73755 83.8117 2.73755L24.6945 2.73755C24.2057 2.73755 23.8147 2.34136 23.8147 1.85772C23.8147 1.37409 24.2109 0.977932 24.6945 0.977932Z"/>
            <path d="M24.5656 48.2021L83.6828 48.2021C84.1716 48.2021 84.5626 48.5982 84.5626 49.0819C84.5626 49.5655 84.1665 49.9617 83.6828 49.9617L24.5656 49.9617C24.0768 49.9617 23.6858 49.5655 23.6858 49.0819C23.6858 48.5982 24.0819 48.2021 24.5656 48.2021Z"/>
        </g>
        <defs>
            <clipPath id="clip0_14986_606">
                <rect width="110" height="50" />
            </clipPath>
        </defs>
    </symbol>
    <symbol viewBox="0 0 100 221" id="dollar">
        <g clip-path="url(#clip0_14986_006)">
            <path d="M99.1109 171.065C99.1109 198.388 76.878 220.621 49.5554 220.621C22.2327 220.621 -0.00012207 198.388 -0.00012207 171.065C-0.00012207 143.743 22.2327 121.51 49.5554 121.51C76.878 121.51 99.1109 143.743 99.1109 171.065ZM3.57003 171.065C3.57003 196.421 24.1999 217.051 49.5554 217.051C74.9108 217.051 95.5407 196.421 95.5407 171.065C95.5407 145.71 74.9108 125.08 49.5554 125.08C24.1999 125.08 3.57003 145.71 3.57003 171.065Z" />
            <path d="M99.1135 49.9295C99.1135 50.9183 98.312 51.7094 97.3336 51.7094C96.3552 51.7094 95.5537 50.9079 95.5537 49.9295C95.5537 24.5741 74.9238 3.94418 49.5684 3.94418C24.213 3.94418 3.58305 24.5741 3.58305 49.9295C3.58305 50.9183 2.78156 51.7094 1.80315 51.7094C0.82474 51.7094 0.0233154 50.9079 0.0233154 49.9295C0.0233154 22.6069 22.2561 0.374023 49.5788 0.374023C76.9015 0.374023 99.1343 22.6069 99.1343 49.9295H99.1135Z" />
            <path d="M40.0118 162.312C40.0118 164.133 41.2505 165.715 43.02 166.152L46.3819 166.996V158.346H43.9879C41.8021 158.346 40.0223 160.126 40.0223 162.312H40.0118Z" />
            <path d="M52.7292 183.785H55.1233C57.3091 183.785 59.089 182.005 59.089 179.819C59.089 177.997 57.8503 176.415 56.0808 175.978L52.7189 175.135V183.785H52.7292Z" />
            <path d="M49.5562 130.742C27.3234 130.742 9.22278 148.832 9.22278 171.076C9.22278 193.319 27.313 211.409 49.5562 211.409C71.7995 211.409 89.8897 193.319 89.8897 171.076C89.8897 148.832 71.7995 130.742 49.5562 130.742ZM65.4607 164.706H59.1009V161.521C59.1009 159.772 57.675 158.335 55.9159 158.335H52.7309V168.578L57.6334 169.806C62.234 170.961 65.4502 175.073 65.4502 179.819C65.4502 185.512 60.8184 190.144 55.1249 190.144H52.7309V198.201H46.3712V190.144H43.1862C37.9194 190.144 33.6415 185.866 33.6415 180.6V177.415H40.0011V180.6C40.0011 182.348 41.4271 183.785 43.1862 183.785H46.3712V173.542L41.4687 172.314C36.8681 171.159 33.6519 167.048 33.6519 162.301C33.6519 156.608 38.2837 151.976 43.9772 151.976H46.3712V143.92H52.7309V151.976H55.9159C61.1827 151.976 65.4607 156.254 65.4607 161.521V164.706Z"/>
            <path d="M99.1729 49.1697V168.765C99.1729 169.754 98.3715 170.545 97.3931 170.545C96.4146 170.545 95.6132 169.743 95.6132 168.765V49.1697C95.6132 48.1809 96.4146 47.3899 97.3931 47.3899C98.3715 47.3899 99.1729 48.1913 99.1729 49.1697Z" />
            <path d="M3.63774 48.9095V168.505C3.63774 169.494 2.83625 170.285 1.85784 170.285C0.879427 170.285 0.0780029 169.483 0.0780029 168.505V48.9095C0.0780029 47.9207 0.879427 47.1296 1.85784 47.1296C2.83625 47.1296 3.63774 47.9311 3.63774 48.9095Z" />
        </g>
        <defs>
            <clipPath id="clip0_14986_006">
                <rect width="100" height="221" />
            </clipPath>
        </defs>
    </symbol>
    <symbol viewBox="0 0 101 101" id="crown">
        <g clip-path="url(#clip0_14986_005)">
            <path d="M15.4923 85.4798C-3.99743 65.9901 -3.99743 34.2813 15.4923 14.7916C34.982 -4.69811 66.6907 -4.69811 86.1804 14.7916C105.67 34.2813 105.67 65.9901 86.1804 85.4798C66.6907 104.97 34.982 104.97 15.4923 85.4798ZM83.8248 17.1473C65.6338 -1.04379 36.039 -1.04379 17.8527 17.1473C-0.338378 35.3383 -0.338378 64.9331 17.8527 83.1194C36.0437 101.31 65.6385 101.31 83.8248 83.1194C102.016 64.9284 102.016 35.3336 83.8248 17.1473Z" />
            <path d="M84.364 39.533C84.1887 39.3576 84.0465 39.1348 83.9659 38.8884C82.2359 33.7695 79.411 29.2336 75.5718 25.3944C71.7374 21.56 67.1968 18.7351 62.0779 17.0004C61.4001 16.7681 60.9451 16.1377 60.9451 15.422V3.27414C60.9451 2.76225 61.182 2.27879 61.5849 1.96123C61.9925 1.64367 62.5186 1.53466 63.0116 1.65789C71.7611 3.84764 79.7712 8.38829 86.1698 14.7916C92.5685 21.195 97.1091 29.2004 99.2989 37.9499C99.4221 38.4476 99.3084 38.9737 98.9955 39.3813C98.678 39.7889 98.1945 40.0212 97.6826 40.0212H85.5347C85.0797 40.0212 84.6626 39.8363 84.3545 39.5282L84.364 39.533ZM77.9275 23.0388C81.8425 26.9538 84.7953 31.5418 86.7197 36.6892H95.5071C93.2984 29.3331 89.2839 22.6122 83.819 17.1473C78.3541 11.6824 71.6332 7.66786 64.2818 5.46389V14.2513C69.4292 16.1709 74.0172 19.1238 77.9322 23.0435L77.9275 23.0388Z" />
            <path d="M15.4909 85.4797C9.09225 79.0811 4.54685 71.0709 2.3571 62.3214C2.23386 61.8238 2.34762 61.2976 2.66045 60.8948C2.97801 60.4871 3.46144 60.2549 3.97333 60.2549H16.1212C16.8369 60.2549 17.4721 60.7099 17.6996 61.3877C19.4296 66.5066 22.2544 71.0425 26.0936 74.8817C29.928 78.7161 34.4687 81.541 39.5876 83.2757C40.2654 83.5032 40.7204 84.1383 40.7204 84.854V97.0019C40.7204 97.5138 40.4834 97.9973 40.0805 98.3148C39.6729 98.6324 39.1468 98.7414 38.6491 98.6182C29.8996 96.4284 21.8942 91.8878 15.4909 85.4892V85.4797ZM6.15836 63.5822C8.36707 70.9382 12.3816 77.6591 17.8465 83.124C23.3114 88.5889 30.0323 92.6035 37.3884 94.8122V86.0247C32.241 84.1051 27.653 81.1523 23.738 77.2373C19.823 73.3223 16.8701 68.7343 14.9458 63.5869H6.15836V63.5822Z" />
            <path d="M61.4411 98.1728C61.1283 97.86 60.9529 97.4382 60.9529 96.9926V84.8447C60.9529 84.129 61.4079 83.4939 62.0857 83.2664C67.2046 81.5364 71.7405 78.7115 75.5796 74.8724C79.4188 71.0332 82.2389 66.4973 83.9737 61.3784C84.2012 60.7006 84.8363 60.2456 85.552 60.2456H97.6999C98.2118 60.2456 98.6953 60.4826 99.0128 60.8855C99.3304 61.2883 99.4394 61.8192 99.3162 62.3121C97.1217 71.0616 92.581 79.067 86.1824 85.4704C79.7838 91.8737 71.7737 96.4144 63.0241 98.6041C62.5265 98.7274 62.0004 98.6136 61.5975 98.3008C61.5453 98.2534 61.4932 98.2108 61.4458 98.1634L61.4411 98.1728ZM64.2849 86.0202V94.8076C71.641 92.5989 78.3619 88.5844 83.8268 83.1195C89.2917 77.6546 93.3015 70.9337 95.5149 63.5776H86.7275C84.8079 68.7249 81.855 73.3082 77.9353 77.228C74.0203 81.143 69.4323 84.1006 64.2849 86.0202Z" />
            <path d="M2.79389 39.533C2.74649 39.4856 2.69911 39.4334 2.66119 39.3813C2.34363 38.9784 2.23461 38.4476 2.35784 37.9499C4.54759 29.2004 9.08825 21.1903 15.4916 14.7916C21.895 8.39302 29.9003 3.84763 38.6498 1.65788C39.1475 1.53465 39.6736 1.64839 40.0765 1.96122C40.4794 2.27878 40.7164 2.76224 40.7164 3.27413V15.422C40.7164 16.1377 40.2614 16.7728 39.5836 17.0003C34.4647 18.7303 29.9288 21.5552 26.0896 25.3944C22.2552 29.2288 19.4303 33.7695 17.6956 38.8884C17.4681 39.5661 16.833 40.0212 16.1173 40.0212H3.96936C3.52382 40.0212 3.09723 39.8458 2.78914 39.5377L2.79389 39.533ZM37.3844 5.46387C30.0283 7.67258 23.3074 11.6871 17.8425 17.152C12.3776 22.6169 8.36781 29.3378 6.15436 36.6939H14.9418C16.8614 31.5466 19.8142 26.9632 23.734 23.0435C27.649 19.1285 32.237 16.1756 37.3844 14.2513V5.46387Z" />
            <path d="M77.9316 23.0387C62.9921 8.09915 38.6773 8.09441 23.7377 23.0387C8.79339 37.9831 8.79813 62.2931 23.7377 77.2327C38.6773 92.1723 62.9873 92.177 77.9316 77.2327C92.876 62.2884 92.8712 37.9783 77.9316 23.0387Z" />
            <path d="M64.6544 63.8133L37.1268 63.9958C35.9672 64.0035 35.0333 64.9498 35.041 66.1094L35.0475 67.0905C35.0552 68.2501 36.0015 69.1839 37.1611 69.1762L64.6888 68.9937C65.8484 68.986 66.7822 68.0397 66.7745 66.8801L66.768 65.899C66.7603 64.7394 65.814 63.8056 64.6544 63.8133Z" fill="#110A1D"/>
            <path d="M40.8773 47.1973C40.5787 47.1973 40.2754 47.1309 40.0005 46.9982L37.8534 45.9602C36.9197 45.5052 36.4931 44.4008 36.8817 43.4387L37.8676 40.9835C38.171 40.2346 38.8867 39.7464 39.6924 39.7417C40.0384 39.7417 40.3797 39.827 40.683 40.0024L43.2425 41.4622C43.7212 41.7324 44.0672 42.2016 44.1904 42.7419C44.3136 43.2823 44.2046 43.851 43.8918 44.3061L42.4889 46.3394C42.1239 46.8702 41.5172 47.1925 40.8726 47.1925L40.8773 47.1973Z" fill="#110A1D"/>
            <path d="M60.6922 47.0645C60.0476 47.0645 59.4362 46.7565 59.0665 46.2304L57.6777 44.2729C57.3554 43.8226 57.2417 43.2538 57.3555 42.7135C57.4692 42.1732 57.8105 41.6992 58.2892 41.4195L60.9292 39.8697C61.2278 39.6943 61.5691 39.5995 61.9151 39.5948C62.7208 39.59 63.446 40.0687 63.7588 40.8129L64.7542 43.1969C65.1523 44.1544 64.7399 45.2682 63.8157 45.7327L61.5691 46.856C61.2989 46.9887 60.9955 47.0645 60.6969 47.0645H60.6922Z" fill="#110A1D"/>
            <path d="M38.7148 62.1557C37.5061 62.1651 36.4208 61.4068 36.0084 60.2693L31.4156 47.6284C31.1218 47.7706 30.8089 47.8796 30.4914 47.9602C30.1169 48.055 29.7377 48.1024 29.3538 48.1024C29.1311 48.1024 28.913 48.0929 28.6997 48.0645C26.3062 47.7611 24.4909 45.7088 24.4767 43.2916C24.4577 40.6184 26.619 38.4286 29.2922 38.4097C31.9654 38.3907 34.1552 40.552 34.1694 43.2252C34.1694 43.8414 34.0651 44.4339 33.8471 44.9884C33.7286 45.2918 33.5817 45.5809 33.411 45.8558L42.1463 50.0836L48.8294 40.4004C48.5497 40.2819 48.2795 40.1349 48.0236 39.9596C47.5401 39.6325 47.1183 39.2249 46.777 38.7462C46.1988 37.931 45.886 36.9688 45.8812 35.9735C45.8623 33.3003 48.0236 31.1105 50.6968 31.0916C50.8153 31.0916 50.9385 31.0915 51.057 31.101C53.4506 31.2622 55.3844 33.1818 55.5597 35.5753C55.6403 36.7081 55.3417 37.7935 54.6971 38.7178C54.3559 39.2012 53.9387 39.6136 53.46 39.9406C53.2088 40.116 52.9387 40.2629 52.659 40.3814L59.4605 49.9651L68.0536 45.6662C67.8925 45.3581 67.7645 45.0358 67.6697 44.6993C67.556 44.2917 67.4944 43.8651 67.4944 43.4338C67.4944 43.2394 67.5038 43.0451 67.5228 42.8555C67.7977 40.4193 69.8547 38.5708 72.3051 38.5566C74.9783 38.5377 77.1681 40.699 77.1823 43.3722C77.2013 45.9221 75.2201 48.0645 72.6749 48.2398L72.3715 48.2493C71.8786 48.2493 71.3952 48.183 70.9259 48.0408C70.6226 47.946 70.3287 47.8275 70.0538 47.6758L65.7406 60.0702C65.3473 61.2125 64.2666 61.9803 63.0579 61.9898L38.7148 62.1509V62.1557Z" fill="#110A1D"/>
        </g>
        <defs>
            <clipPath id="clip0_14986_005">
                <rect width="101" height="101" />
            </clipPath>
        </defs>
    </symbol>
    <symbol viewBox="0 0 100 100" id="soccer">
        <g clip-path="url(#clip0_14986_004)">
            <path d="M50.1272 99.3893C22.8045 99.3893 0.582031 77.1564 0.582031 49.8442C0.582031 22.5319 22.8149 0.299072 50.1272 0.299072C77.4394 0.299072 99.6723 22.5319 99.6723 49.8442C99.6723 77.1564 77.4394 99.3893 50.1272 99.3893ZM50.1272 3.59859C24.626 3.59859 3.88161 24.343 3.88161 49.8442C3.88161 75.3453 24.626 96.0897 50.1272 96.0897C75.6283 96.0897 96.3727 75.3453 96.3727 49.8442C96.3727 24.343 75.6283 3.59859 50.1272 3.59859Z"/>
            <path d="M66.1977 18.8995C65.9479 18.8995 65.698 18.8474 65.4691 18.733C60.6707 16.3598 55.508 15.1524 50.1267 15.1524C44.7455 15.1524 39.5828 16.3598 34.7844 18.733C34.1495 19.0452 33.3897 18.9203 32.89 18.4206L24.3758 9.90639C24.0115 9.54208 23.8449 9.04246 23.9074 8.53244C23.9698 8.02242 24.2613 7.57486 24.6985 7.31465C32.3696 2.71403 41.1649 0.288818 50.1372 0.288818C59.1094 0.288818 67.9047 2.72444 75.5759 7.31465C76.013 7.57486 76.3044 8.02242 76.3669 8.53244C76.4293 9.04246 76.2524 9.54208 75.8985 9.90639L67.3842 18.4206C67.0615 18.7329 66.6453 18.8995 66.2081 18.8995H66.1977ZM50.1267 11.8528C55.6121 11.8528 60.8997 12.9978 65.8542 15.2564L72.0161 9.09455C65.3129 5.48275 57.7875 3.58834 50.1267 3.58834C42.466 3.58834 34.9405 5.48275 28.2373 9.09455L34.3993 15.2564C39.3538 12.9978 44.6414 11.8528 50.1267 11.8528Z" />
            <path d="M50.1249 99.3893C41.1527 99.3893 32.3574 96.9537 24.6862 92.3635C24.2491 92.1032 23.9576 91.6556 23.8952 91.1456C23.8327 90.6356 24.0097 90.136 24.3636 89.7717L32.8778 81.2574C33.3774 80.7578 34.1477 80.6329 34.7722 80.9451C39.5706 83.3183 44.7333 84.5257 50.1145 84.5257C55.4958 84.5257 60.6585 83.3183 65.4569 80.9451C66.0918 80.6329 66.8516 80.7578 67.3512 81.2574L75.8655 89.7717C76.2298 90.136 76.3963 90.6356 76.3339 91.1456C76.2714 91.6556 75.98 92.1032 75.5428 92.3635C67.8717 96.9641 59.0764 99.3893 50.1041 99.3893H50.1249ZM28.2356 90.5836C34.9387 94.1954 42.4642 96.0897 50.1249 96.0897C57.7857 96.0897 65.3111 94.1954 72.0143 90.5836L65.8524 84.4217C60.8979 86.6803 55.6103 87.8252 50.1249 87.8252C44.6396 87.8252 39.352 86.6803 34.3975 84.4217L28.2356 90.5836Z" />
            <path d="M91.2328 76.074C90.7957 76.074 90.3793 75.9075 90.0671 75.5952L81.5528 67.081C81.0532 66.5814 80.9283 65.8111 81.2406 65.1866C83.6137 60.3882 84.8211 55.2255 84.8211 49.8443C84.8211 44.463 83.6137 39.3003 81.2406 34.502C80.9283 33.867 81.0532 33.0968 81.5528 32.6076L90.0671 24.0933C90.4314 23.729 90.931 23.5625 91.441 23.6249C91.951 23.6874 92.3986 23.9788 92.6588 24.416C97.2594 32.0871 99.6846 40.8824 99.6846 49.8547C99.6846 58.8269 97.2594 67.6222 92.6588 75.2934C92.3986 75.7306 91.951 76.022 91.441 76.0845C91.3681 76.0845 91.3057 76.0845 91.2328 76.0845V76.074ZM84.7066 65.5613L90.8685 71.7232C94.4803 65.0201 96.3747 57.4946 96.3747 49.8339C96.3747 42.1731 94.4803 34.6477 90.8685 27.9445L84.7066 34.1064C86.9653 39.0609 88.1102 44.3485 88.1102 49.8339C88.1102 55.3192 86.9653 60.6068 84.7066 65.5613Z" />
            <path d="M9.02348 76.0741C8.95062 76.0741 8.88817 76.0741 8.82572 76.0636C8.31569 76.0012 7.86808 75.7097 7.60786 75.2726C3.00724 67.6014 0.582031 58.8061 0.582031 49.8339C0.582031 40.8616 3.00724 32.0664 7.60786 24.3952C7.86808 23.9581 8.31569 23.6666 8.82572 23.6042C9.33574 23.5417 9.83536 23.7186 10.1997 24.0725L18.7139 32.5868C19.2135 33.0864 19.3384 33.8566 19.0262 34.4811C16.653 39.2795 15.4456 44.4423 15.4456 49.8235C15.4456 55.2048 16.653 60.3675 19.0262 65.1658C19.3384 65.8008 19.2135 66.571 18.7139 67.0602L10.1997 75.5745C9.88741 75.8867 9.471 76.0636 9.03384 76.0636L9.02348 76.0741ZM9.38776 27.9445C5.77596 34.6477 3.88161 42.1731 3.88161 49.8339C3.88161 57.4946 5.77596 65.0201 9.38776 71.7233L15.5497 65.5614C13.291 60.6069 12.1461 55.3192 12.1461 49.8339C12.1461 44.3485 13.291 39.0609 15.5497 34.1064L9.38776 27.9445Z" />
            <path d="M50.1282 11.8528C29.1861 11.8528 12.1367 28.8917 12.1367 49.8443C12.1367 70.7969 29.1757 87.8358 50.1282 87.8358C71.0808 87.8358 88.1198 70.7969 88.1198 49.8443C88.1198 28.8917 71.0808 11.8528 50.1282 11.8528ZM71.5075 37.3644C73.3082 40.4453 74.4011 43.8073 74.755 47.3775C74.7654 47.5232 74.703 47.6585 74.5781 47.7314C71.8615 49.3968 69.4258 51.4368 67.3233 53.8204C67.2296 53.9349 67.0735 53.9766 66.9381 53.9245L62.2439 52.3944C62.1086 52.3528 62.0149 52.2383 61.994 52.0926C61.4632 48.2102 60.2559 44.4943 58.4031 41.0386C58.3407 40.9137 58.351 40.768 58.4343 40.6535L61.3383 36.6566C61.4112 36.5629 61.5257 36.5004 61.6402 36.5004C61.6714 36.5004 61.6922 36.5004 61.7235 36.5004C64.8252 37.1874 68.0102 37.4164 71.1745 37.1562C71.3202 37.1458 71.4555 37.2186 71.5284 37.3435L71.5075 37.3644ZM59.4336 52.7484C59.444 52.8524 59.4127 52.9565 59.3503 53.0293C56.8834 55.8709 53.74 58.1504 50.274 59.6076C50.1803 59.6492 50.0866 59.6492 49.9929 59.6076C46.5268 58.14 43.3834 55.8605 40.9166 53.0293C40.8541 52.9565 40.8229 52.8524 40.8333 52.7484C41.3121 48.9804 42.4883 45.379 44.3098 42.0482C44.3618 41.9546 44.4451 41.8921 44.5492 41.8713C46.3811 41.4862 48.2547 41.2884 50.1387 41.2884C52.0226 41.2884 53.8962 41.4862 55.7281 41.8713C55.8322 41.8921 55.9154 41.9546 55.9675 42.0482C57.789 45.379 58.9548 48.9804 59.444 52.7484H59.4336ZM58.8715 26.9141C58.8715 26.9141 58.9964 26.81 59.1213 26.81C59.1629 26.81 59.2149 26.81 59.267 26.8412C63.0974 28.3609 66.5218 30.859 69.1864 34.0544C69.3218 34.2105 69.2697 34.3771 69.2385 34.4395C69.2177 34.4916 69.124 34.6581 68.9054 34.6581C66.5426 34.6894 64.1903 34.4187 61.9108 33.8775C61.8171 33.8567 61.7338 33.7942 61.6818 33.7109C60.464 31.7021 59.4856 29.5371 58.7778 27.2888C58.7154 27.091 58.8298 26.9557 58.8819 26.9141H58.8715ZM44.8719 25.6651C48.3171 24.926 51.9497 24.926 55.395 25.6651C55.5303 25.6963 55.6448 25.8004 55.676 25.9357C56.415 29.0271 57.612 31.9831 59.2254 34.7206C59.2982 34.8455 59.2878 35.0016 59.2045 35.1265L56.3214 39.1026C56.2381 39.2171 56.0924 39.2795 55.957 39.2483C52.1475 38.4781 48.1193 38.4781 44.3098 39.2483C44.1745 39.2795 44.0288 39.2171 43.9455 39.1026L41.0623 35.1265C40.979 35.012 40.9686 34.8455 41.0415 34.7206C42.6548 31.9831 43.8518 29.0271 44.5908 25.9357C44.6221 25.8004 44.7366 25.6963 44.8719 25.6651ZM31.0804 34.0544C33.7451 30.8486 37.1695 28.3505 40.9998 26.8412C41.0519 26.8204 41.1039 26.81 41.1456 26.81C41.2809 26.81 41.3642 26.8829 41.3954 26.9141C41.4474 26.9662 41.5619 27.091 41.4994 27.2888C40.7917 29.5475 39.8133 31.7021 38.5955 33.7109C38.5434 33.7942 38.4602 33.8567 38.3665 33.8775C36.087 34.4187 33.7346 34.6894 31.3719 34.6581C31.1533 34.6581 31.0596 34.4916 31.0388 34.4395C31.0075 34.3771 30.9555 34.2105 31.0908 34.0544H31.0804ZM28.7593 37.3644C28.8217 37.2499 28.9466 37.177 29.0819 37.177C29.0819 37.177 29.1028 37.177 29.1132 37.177C32.2878 37.4268 35.4729 37.2082 38.5643 36.5213C38.71 36.49 38.8557 36.5421 38.939 36.667L41.8429 40.6639C41.9262 40.7784 41.9366 40.9346 41.8742 41.0491C40.0215 44.5047 38.814 48.2206 38.2832 52.103C38.2624 52.2383 38.1687 52.3528 38.0334 52.4049L33.3391 53.9349C33.2038 53.9765 33.0477 53.9349 32.954 53.8308C30.8514 51.4473 28.4158 49.4072 25.6991 47.7418C25.5846 47.6689 25.5118 47.5336 25.5222 47.3879C25.8761 43.8177 26.969 40.4453 28.7697 37.3748L28.7593 37.3644ZM29.8938 63.0112C29.8314 63.209 29.6545 63.2506 29.5816 63.261C29.5087 63.261 29.3422 63.2611 29.2277 63.0945C27.0106 59.6076 25.6991 55.5691 25.4389 51.4264C25.4285 51.2183 25.5638 51.1142 25.6263 51.0829C25.6887 51.0517 25.8553 50.9789 26.0218 51.1038C27.9474 52.4673 29.6961 54.0702 31.2261 55.8501C31.2886 55.923 31.3198 56.0167 31.3094 56.1207C31.1221 58.4627 30.6433 60.7838 29.8834 63.0217L29.8938 63.0112ZM40.1776 72.5143C36.9301 71.0884 34.0677 68.9962 31.6737 66.3108C31.58 66.2067 31.5488 66.0506 31.6009 65.9257C32.8187 62.9904 33.5889 59.899 33.8907 56.7348C33.9011 56.5891 34.0053 56.4642 34.1406 56.4226L38.7828 54.9133C38.7828 54.9133 38.8556 54.8925 38.8973 54.8925C39.0014 54.8925 39.0951 54.9342 39.1679 55.0174C41.7701 57.9318 45.028 60.305 48.5981 61.8767C48.7334 61.9391 48.8167 62.064 48.8167 62.2098V67.0914C48.8167 67.2371 48.7334 67.3725 48.5981 67.4245C45.6837 68.6839 42.9775 70.3806 40.5523 72.4519C40.4482 72.5456 40.2921 72.5664 40.1672 72.5039L40.1776 72.5143ZM56.5503 73.5448C56.5399 73.6176 56.4879 73.7842 56.2797 73.8363C52.262 74.8563 48.0153 74.8563 43.9975 73.8363C43.7998 73.7842 43.7373 73.6176 43.7269 73.5448C43.7165 73.4719 43.6957 73.3054 43.8726 73.1701C45.767 71.7649 47.8279 70.5887 50.0033 69.6832C50.097 69.6415 50.1907 69.6415 50.2843 69.6832C52.4493 70.5887 54.5103 71.7649 56.415 73.1701C56.5816 73.295 56.5712 73.4719 56.5608 73.5448H56.5503ZM68.614 66.3212C66.22 69.0066 63.3576 71.0884 60.1101 72.5143C59.9748 72.5768 59.8291 72.5456 59.725 72.4623C57.2998 70.391 54.6039 68.6944 51.6791 67.4349C51.5438 67.3725 51.4605 67.2476 51.4605 67.1018V62.2202C51.4605 62.0745 51.5438 61.9391 51.6791 61.8871C55.2493 60.3154 58.5176 57.9423 61.1093 55.0278C61.1822 54.9446 61.2759 54.9029 61.38 54.9029C61.4216 54.9029 61.4528 54.9029 61.4944 54.9237L66.1367 56.433C66.272 56.4746 66.3761 56.5995 66.3865 56.7452C66.6884 59.9095 67.4586 62.9904 68.6764 65.9361C68.7285 66.061 68.7076 66.2171 68.6036 66.3212H68.614ZM71.0496 63.1049C70.9351 63.2818 70.7582 63.2819 70.6957 63.2715C70.6228 63.2715 70.4563 63.2194 70.3834 63.0217C69.634 60.7838 69.1552 58.4627 68.9574 56.1207C68.9574 56.0271 68.9783 55.923 69.0407 55.8501C70.5708 54.0702 72.3194 52.4777 74.245 51.1038C74.3179 51.0517 74.3908 51.0309 74.4532 51.0309C74.5365 51.0309 74.5989 51.0621 74.6406 51.0829C74.703 51.1142 74.8487 51.2183 74.8279 51.4264C74.5677 55.5691 73.2562 59.6076 71.0392 63.0945L71.0496 63.1049Z"/>
        </g>
        <defs>
            <clipPath id="clip0_14986_004">
                <rect width="100" height="100" />
            </clipPath>
        </defs>
    </symbol>
    <symbol viewBox="0 0 100 222" id="world">
        <g clip-path="url(#clip0_14986_003)">
            <path d="M0.546753 50.4613C0.546753 23.1386 22.7796 0.905762 50.1023 0.905762C77.425 0.905762 99.6578 23.1386 99.6578 50.4613C99.6578 77.7839 77.425 100.017 50.1023 100.017C22.7796 100.017 0.546753 77.7839 0.546753 50.4613ZM96.0877 50.4613C96.0877 25.1058 75.4577 4.47592 50.1023 4.47592C24.7469 4.47592 4.11697 25.1058 4.11697 50.4613C4.11697 75.8167 24.7469 96.4466 50.1023 96.4466C75.4577 96.4466 96.0877 75.8167 96.0877 50.4613Z" />
            <path d="M0.544089 171.607C0.544089 170.618 1.34558 169.827 2.32399 169.827C3.3024 169.827 4.10389 170.629 4.10389 171.607C4.10389 196.963 24.7338 217.593 50.0892 217.593C75.4447 217.593 96.0746 196.963 96.0746 171.607C96.0746 170.618 96.8761 169.827 97.8545 169.827C98.8329 169.827 99.6343 170.629 99.6343 171.607C99.6343 198.93 77.4015 221.163 50.0788 221.163C22.7561 221.163 0.523315 198.93 0.523315 171.607H0.544089Z" />
            <path d="M98.1434 49.2644H76.4414V53.5423H98.1434V49.2644Z" />
            <path d="M23.4207 49.2644H1.71863V53.5423H23.4207V49.2644Z" />
            <path d="M52.4107 78.2419H48.1328V99.944H52.4107V78.2419Z" />
            <path d="M52.4107 2.86255H48.1328V24.5645H52.4107V2.86255Z" />
            <path d="M75.7859 24.2522C60.9432 9.40944 36.868 9.40944 22.0148 24.2522C7.17213 39.0949 7.17213 63.1701 22.0148 78.0232C36.8576 92.8659 60.9328 92.8659 75.7859 78.0232C90.6286 63.1805 90.6286 39.1053 75.7859 24.2522ZM56.2489 27.4684C60.5789 28.8112 64.4613 31.3196 67.4798 34.7337L68.0626 35.3894L67.2092 35.5872C64.9505 36.118 62.5357 36.5552 60.0376 36.8778L59.5901 36.9403L59.4652 36.5031C59.0488 35.0772 58.5596 33.7032 57.9975 32.4333C57.3001 30.8408 56.5195 29.446 55.666 28.2699L54.7292 26.9896L56.2489 27.458V27.4684ZM38.8768 49.9511L38.8977 49.4098C39.0018 46.1207 39.3661 42.9773 39.9906 40.0837L40.0843 39.6257L40.5526 39.6673C46.0276 40.1461 51.8773 40.1253 57.321 39.6153L57.7893 39.5737L57.8934 40.0317C58.5284 42.9565 58.8927 46.1103 58.9863 49.4098V49.9511H38.8873H38.8768ZM58.9863 52.3659V52.9072C58.8718 56.2067 58.5075 59.3605 57.8726 62.2853L57.7685 62.7433L57.3001 62.7017C51.8564 62.1916 46.0068 62.1812 40.5319 62.6496L40.0634 62.6912L39.9697 62.2333C39.3452 59.3396 38.9809 56.2067 38.8768 52.9072L38.856 52.3659H58.9655H58.9863ZM48.9316 26.5629C51.9605 26.5629 55.0415 30.4036 56.9671 36.5968L57.1648 37.2213L56.5091 37.2734C53.9486 37.4919 51.3048 37.6064 48.6506 37.6064C46.1837 37.6064 43.7273 37.5127 41.3333 37.315L40.6775 37.2629L40.8753 36.628C42.8009 30.4141 45.8923 26.5525 48.9316 26.5525V26.5629ZM30.2793 34.8481C33.3186 31.3821 37.2323 28.832 41.6143 27.4789L43.1444 27.0105L42.1972 28.3011C41.3437 29.4669 40.5527 30.872 39.8657 32.4542C39.314 33.7032 38.8144 35.0979 38.3773 36.5968L38.2524 37.0236L37.8048 36.9715C35.2859 36.6593 32.8503 36.2429 30.5604 35.7121L29.6964 35.5143L30.2793 34.8481ZM24.2007 49.389C24.4921 45.3297 25.7932 41.3744 27.9686 37.9291L28.1768 37.6064L28.5515 37.7001C31.2161 38.3767 34.0889 38.9179 37.1074 39.3031L37.6695 39.3759L37.5549 39.938C36.9304 42.9565 36.5766 46.1519 36.4829 49.4411V49.9511H24.1694L24.2111 49.389H24.2007ZM28.1768 64.7105L27.9686 64.3878C25.7932 60.953 24.4921 56.9873 24.2007 52.9279L24.159 52.3659H36.462V52.8759C36.5661 56.165 36.9305 59.3709 37.5446 62.379L37.6591 62.941L37.097 63.0139C34.0889 63.399 31.2057 63.9403 28.5411 64.6169L28.1664 64.7105H28.1768ZM41.6143 74.8485C37.2323 73.4954 33.3186 70.9453 30.2793 67.4792L29.6964 66.8131L30.5604 66.6153C32.8503 66.0949 35.2859 65.6681 37.8048 65.3558L38.2524 65.3038L38.3773 65.7306C38.8144 67.2294 39.314 68.6242 39.8657 69.8732C40.5631 71.4657 41.3437 72.8605 42.1972 74.0367L43.1444 75.3273L41.6143 74.8589V74.8485ZM48.9316 75.7541C45.8923 75.7541 42.8009 71.8925 40.8753 65.6785L40.6775 65.0436L41.3333 64.9916C46.2982 64.596 51.5858 64.6064 56.5091 65.0332L57.1648 65.0852L56.9671 65.7098C55.0311 71.8925 51.9501 75.7437 48.9316 75.7437V75.7541ZM67.4798 67.5833C64.4613 70.9973 60.5684 73.5058 56.2489 74.8485L54.7292 75.3169L55.666 74.0367C56.5195 72.8709 57.3001 71.4657 57.9975 69.8732C58.5492 68.593 59.0488 67.2294 59.4652 65.8034L59.5901 65.3663L60.0376 65.4287C62.5357 65.7514 64.9505 66.1885 67.2092 66.7194L68.0626 66.9276L67.4798 67.5833ZM73.6521 52.9279C73.3607 57.0289 72.0388 61.0363 69.8113 64.5127L69.6032 64.8354L69.2285 64.7418C66.5951 64.0444 63.7327 63.4927 60.735 63.0868L60.1729 63.0139L60.2874 62.4623C60.9119 59.4438 61.2762 56.2275 61.3699 52.8863V52.3763H73.6833L73.6417 52.9383L73.6521 52.9279ZM61.3907 49.9511V49.4411C61.2866 46.0999 60.9224 42.8732 60.2978 39.8651L60.1834 39.3135L60.7454 39.2406C63.7431 38.8347 66.595 38.283 69.2388 37.5856L69.6136 37.492L69.8217 37.8146C72.0491 41.2911 73.3815 45.288 73.6625 49.3994L73.7042 49.9615H61.4011L61.3907 49.9511Z" />
            <path d="M0.484375 172.357V52.7616C0.484375 51.7728 1.28586 50.9817 2.26427 50.9817C3.24269 50.9817 4.04417 51.7832 4.04417 52.7616V172.357C4.04417 173.346 3.24269 174.137 2.26427 174.137C1.28586 174.137 0.484375 173.335 0.484375 172.357Z" />
            <path d="M96.0352 172.628V53.0323C96.0352 52.0435 96.8366 51.2524 97.815 51.2524C98.7934 51.2524 99.5949 52.0539 99.5949 53.0323V172.628C99.5949 173.616 98.7934 174.407 97.815 174.407C96.8366 174.407 96.0352 173.606 96.0352 172.628Z" />
        </g>
        <defs>
            <clipPath id="clip0_14986_003">
                <rect width="100" height="222" />
            </clipPath>
        </defs>
    </symbol>
    <symbol viewBox="0 0 109 50" id="horizontal-world">
        <g clip-path="url(#clip0_14986_303)">
            <path d="M24.5844 49.3894C11.0786 49.3894 0.088623 38.3994 0.088623 24.8935C0.088623 11.3877 11.0786 0.397724 24.5844 0.397724C38.0903 0.397724 49.0803 11.3877 49.0803 24.8935C49.0803 38.3994 38.0903 49.3894 24.5844 49.3894ZM24.5844 2.16249C12.051 2.16249 1.85339 12.3601 1.85339 24.8935C1.85339 37.427 12.051 47.6246 24.5844 47.6246C37.1179 47.6246 47.3155 37.427 47.3155 24.8935C47.3155 12.3601 37.1179 2.16249 24.5844 2.16249Z"/>
            <path d="M84.4682 49.3906C83.9794 49.3906 83.5884 48.9944 83.5884 48.5108C83.5884 48.0271 83.9846 47.631 84.4682 47.631C97.0017 47.631 107.199 37.4334 107.199 24.8999C107.199 12.3664 97.0017 2.16885 84.4682 2.16885C83.9794 2.16885 83.5884 1.77266 83.5884 1.28902C83.5884 0.805386 83.9846 0.409233 84.4682 0.409233C97.9741 0.409233 108.964 11.3992 108.964 24.9051C108.964 38.4109 97.9741 49.4009 84.4682 49.4009V49.3906Z"/>
            <path d="M48.8818 23.9211H38.1543V26.0358H48.8818V23.9211Z"/>
            <path d="M11.9456 23.9211H1.21802V26.0358H11.9456V23.9211Z"/>
            <path d="M26.2755 38.2451H24.1609V48.9727H26.2755V38.2451Z"/>
            <path d="M26.2755 0.984131H24.1609V11.7117H26.2755V0.984131Z"/>
            <path d="M37.8303 11.5574C30.4934 4.22046 18.5928 4.22046 11.2507 11.5574C3.91382 18.8943 3.91382 30.7949 11.2507 38.137C18.5876 45.4739 30.4883 45.4739 37.8303 38.137C45.1673 30.8001 45.1673 18.8994 37.8303 11.5574ZM28.173 13.1472C30.3133 13.8109 32.2325 15.0509 33.7245 16.7385L34.0127 17.0626L33.5908 17.1604C32.4743 17.4228 31.2806 17.6389 30.0458 17.7984L29.8246 17.8293L29.7628 17.6132C29.557 16.9083 29.3152 16.2291 29.0374 15.6014C28.6926 14.8142 28.3068 14.1248 27.8849 13.5434L27.4218 12.9105L28.173 13.1421V13.1472ZM19.5858 24.2606L19.5961 23.9931C19.6476 22.3672 19.8276 20.8134 20.1363 19.3831L20.1827 19.1567L20.4142 19.1773C23.1205 19.4139 26.0121 19.4037 28.7029 19.1516L28.9344 19.131L28.9859 19.3574C29.2998 20.8031 29.4798 22.3621 29.5261 23.9931V24.2606H19.591H19.5858ZM29.5261 25.4543V25.7219C29.4696 27.3529 29.2895 28.9118 28.9756 30.3576L28.9242 30.584L28.6926 30.5634C26.0018 30.3113 23.1102 30.3061 20.4039 30.5377L20.1724 30.5582L20.126 30.3318C19.8173 28.9015 19.6373 27.3529 19.5858 25.7219L19.5755 25.4543H29.5158H29.5261ZM24.556 12.6996C26.0532 12.6996 27.5762 14.5981 28.528 17.6595L28.6258 17.9682L28.3016 17.9939C27.0359 18.1019 25.7291 18.1585 24.4171 18.1585C23.1977 18.1585 21.9834 18.1122 20.8 18.0145L20.4759 17.9888L20.5737 17.6749C21.5255 14.6033 23.0536 12.6945 24.556 12.6945V12.6996ZM15.3359 16.7951C16.8383 15.0818 18.7729 13.8212 20.939 13.1524L21.6953 12.9208L21.2271 13.5588C20.8052 14.1351 20.4142 14.8297 20.0746 15.6117C19.8019 16.2291 19.5549 16.9186 19.3389 17.6595L19.2771 17.8704L19.0559 17.8447C17.8108 17.6904 16.6068 17.4845 15.4749 17.2221L15.0478 17.1244L15.3359 16.7951ZM12.3312 23.9828C12.4753 21.9762 13.1184 20.0211 14.1937 18.318L14.2967 18.1585L14.4819 18.2048C15.799 18.5393 17.2191 18.8068 18.7111 18.9972L18.989 19.0332L18.9324 19.311C18.6237 20.8031 18.4487 22.3827 18.4024 24.0085V24.2606H12.3158L12.3364 23.9828H12.3312ZM14.2967 31.5564L14.1937 31.3969C13.1184 29.699 12.4753 27.7387 12.3312 25.7321L12.3106 25.4543H18.3921V25.7064C18.4436 27.3323 18.6237 28.917 18.9272 30.4039L18.9838 30.6817L18.706 30.7177C17.219 30.9081 15.7939 31.1757 14.4767 31.5101L14.2915 31.5564H14.2967ZM20.939 36.5677C18.7729 35.8988 16.8383 34.6383 15.3359 32.925L15.0478 32.5957L15.4749 32.4979C16.6068 32.2407 17.8108 32.0297 19.0559 31.8754L19.2771 31.8497L19.3389 32.0606C19.5549 32.8015 19.8019 33.491 20.0746 34.1084C20.4193 34.8956 20.8052 35.585 21.2271 36.1664L21.6953 36.8044L20.939 36.5729V36.5677ZM24.556 37.0153C23.0536 37.0153 21.5255 35.1065 20.5737 32.0349L20.4759 31.721L20.8 31.6953C23.2543 31.4998 25.868 31.5049 28.3016 31.7159L28.6258 31.7416L28.528 32.0503C27.571 35.1065 26.0481 37.0102 24.556 37.0102V37.0153ZM33.7245 32.9764C32.2325 34.664 30.3082 35.904 28.173 36.5677L27.4218 36.7992L27.8849 36.1664C28.3068 35.5902 28.6926 34.8956 29.0374 34.1084C29.31 33.4755 29.557 32.8015 29.7628 32.0966L29.8246 31.8805L30.0458 31.9114C31.2806 32.0709 32.4743 32.287 33.5908 32.5494L34.0127 32.6523L33.7245 32.9764ZM36.7756 25.7321C36.6315 27.7593 35.9781 29.7402 34.8771 31.4586L34.7742 31.6181L34.5889 31.5718C33.2872 31.2271 31.8723 30.9544 30.3905 30.7537L30.1127 30.7177L30.1693 30.4451C30.478 28.953 30.6581 27.3631 30.7044 25.7116V25.4594H36.791L36.7705 25.7373L36.7756 25.7321ZM30.7147 24.2606V24.0085C30.6632 22.3569 30.4831 20.762 30.1744 19.275L30.1178 19.0024L30.3957 18.9663C31.8775 18.7657 33.2872 18.493 34.5941 18.1482L34.7793 18.102L34.8822 18.2615C35.9832 19.9799 36.6418 21.9556 36.7807 23.988L36.8013 24.2658H30.7198L30.7147 24.2606Z"/>
            <path d="M84.8386 49.4202L25.7214 49.4202C25.2326 49.4202 24.8416 49.024 24.8416 48.5403C24.8416 48.0567 25.2377 47.6605 25.7214 47.6605L84.8386 47.6605C85.3274 47.6605 85.7184 48.0567 85.7184 48.5403C85.7184 49.024 85.3222 49.4202 84.8386 49.4202Z"/>
            <path d="M84.9726 2.18872L25.8554 2.18872C25.3666 2.18872 24.9756 1.79257 24.9756 1.30893C24.9756 0.825289 25.3718 0.429104 25.8554 0.429104L84.9726 0.429104C85.4614 0.429104 85.8524 0.825289 85.8524 1.30893C85.8524 1.79257 85.4562 2.18872 84.9726 2.18872Z"/>
        </g>
        <defs>
            <clipPath id="clip0_14986_303">
                <rect width="109" height="50" />
            </clipPath>
        </defs>
    </symbol>
    <symbol viewBox="0 0 100 100" id="timer">
        <g clip-path="url(#clip0_14986_002)">
            <path d="M49.6153 99.4071C36.9167 99.4071 24.2286 94.5775 14.559 84.9078C-4.76983 65.579 -4.76983 34.1345 14.559 14.8057C23.9268 5.43793 36.3755 0.285645 49.6153 0.285645C62.8551 0.285645 75.3038 5.43793 84.6716 14.8057C104 34.1345 104 65.579 84.6716 84.9078C75.0124 94.5671 62.3138 99.4071 49.6153 99.4071ZM17.1612 82.3057C35.0536 100.198 64.1665 100.198 82.059 82.3057C99.9514 64.4132 99.9514 35.3003 82.059 17.4079C73.3886 8.73747 61.8662 3.97028 49.6049 3.97028C37.3435 3.97028 25.8211 8.74788 17.1507 17.4079C-0.7417 35.3003 -0.7417 64.4132 17.1507 82.3057H17.1612Z"/>
            <path d="M51.4497 39.4224L42.2693 52.2874H47.7754V61.4678L56.9559 48.6131H51.4497V39.4224Z" />
            <path d="M49.6055 32.2715C39.5508 32.2715 31.3904 40.4319 31.3904 50.4866C31.3904 60.5413 39.5508 68.6809 49.6055 68.6809C59.6602 68.6809 67.8206 60.5205 67.8206 50.4866C67.8206 40.4527 59.6602 32.2715 49.6055 32.2715ZM49.6055 66.4326C40.779 66.4326 33.6178 59.2715 33.6178 50.445C33.6178 41.6185 40.779 34.4573 49.6055 34.4573C58.432 34.4573 65.5932 41.6185 65.5932 50.445C65.5932 59.2715 58.432 66.4326 49.6055 66.4326Z" />
            <path d="M77.7625 21.7068C70.2474 14.1813 60.2447 10.0491 49.6071 10.0491C38.9694 10.0491 28.9772 14.1917 21.4517 21.7068C5.93244 37.226 5.93244 62.4878 21.4517 78.0175C29.2166 85.7823 39.4066 89.6647 49.6071 89.6647C59.8075 89.6647 69.9976 85.7823 77.7625 78.0175C93.2817 62.4982 93.2817 37.2364 77.7625 21.7068ZM49.6071 75.1968C35.9926 75.1968 24.9074 64.1115 24.9074 50.497C24.9074 44.4808 27.062 38.9643 30.6426 34.6551L27.624 31.6366C26.7601 30.7727 26.7601 29.3675 27.624 28.4932C28.4879 27.6189 29.8931 27.6293 30.7675 28.4932L33.786 31.5117C37.5331 28.3787 42.2481 26.3178 47.39 25.8806V23.8405H45.35C43.5493 23.8405 42.0608 22.3521 42.0608 20.5514V18.834C42.0608 17.0125 43.5493 15.5449 45.35 15.5449H53.8851C55.6857 15.5449 57.1742 17.0125 57.1742 18.834V20.5514C57.1742 22.3521 55.6857 23.8405 53.8851 23.8405H51.8449V25.8806C56.9972 26.3282 61.7019 28.3891 65.449 31.5117L68.4675 28.4932C69.3314 27.6293 70.7366 27.6293 71.6109 28.4932C72.4748 29.3571 72.4748 30.7622 71.6109 31.6366L68.5924 34.6551C72.173 38.9643 74.3276 44.4704 74.3276 50.497C74.3276 64.1115 63.2424 75.1968 49.6279 75.1968H49.6071Z" />
        </g>
        <defs>
            <clipPath id="clip0_14986_002">
                <rect width="100" height="100" />
            </clipPath>
        </defs>
    </symbol>
    <symbol viewBox="0 0 100 100" id="shield">
        <g clip-path="url(#clip0_14986_001)">
            <path d="M49.9826 99.9325C37.2841 99.9325 24.5959 95.1029 14.9263 85.4332C-4.40252 66.1044 -4.40252 34.6599 14.9263 15.3311C24.2941 5.96332 36.7428 0.811035 49.9826 0.811035C63.2224 0.811035 75.6711 5.96332 85.0389 15.3311C104.368 34.6599 104.368 66.1044 85.0389 85.4332C75.3797 95.0925 62.6811 99.9325 49.9826 99.9325ZM17.5285 82.8311C35.4209 100.724 64.5339 100.724 82.4263 82.8311C100.319 64.9386 100.319 35.8257 82.4263 17.9333C73.7559 9.26286 62.2335 4.49573 49.9722 4.49573C37.7108 4.49573 26.1884 9.27327 17.5181 17.9333C-0.374391 35.8257 -0.374391 64.9386 17.5181 82.8311H17.5285Z" />
            <path d="M49.3269 68.9355C49.5039 69.3622 49.9202 69.6121 50.3574 69.6121C50.5031 69.6121 50.6489 69.5808 50.7946 69.5288C54.2919 68.0612 57.4769 65.7921 59.9958 62.9609C60.4017 62.5029 60.3601 61.7951 59.9021 61.3892C59.4441 60.9833 58.7364 61.0249 58.3304 61.4829C56.0301 64.0747 53.1261 66.1459 49.9306 67.4782C49.3686 67.7176 49.0979 68.3734 49.3373 68.9355H49.3269Z" />
            <path d="M68.8729 33.2441L50.3872 25.8539C50.1166 25.7499 49.8251 25.7499 49.5545 25.8539L31.0688 33.2441C30.642 33.4107 30.3713 33.8166 30.3713 34.2746V47.5143C30.3922 59.7341 38.1154 70.7776 49.5857 74.9827C49.7106 75.0243 49.8355 75.0452 49.9708 75.0452C50.1061 75.0452 50.231 75.0243 50.3559 74.9827C61.8263 70.7672 69.5495 59.7341 69.5703 47.5143V34.2746C69.5703 33.8166 69.2997 33.4107 68.8729 33.2441ZM67.3428 47.5143C67.322 58.6307 60.3482 68.7583 49.9812 72.7448C39.6142 68.7583 32.63 58.6307 32.6092 47.5143V35.0344L49.9812 28.0918L67.3428 35.0344V47.5143Z" />
            <path d="M42.2585 34.9824C41.9878 34.8679 41.686 34.8679 41.4049 34.9824L37.0021 36.7414C36.5754 36.908 36.3047 37.3139 36.3047 37.7719V42.4662C36.3047 43.0803 36.8043 43.5799 37.4184 43.5799C38.0325 43.5799 38.5322 43.0803 38.5322 42.4662V38.5317L42.2272 37.0537C42.5082 36.9392 42.7164 36.731 42.8413 36.4499C42.9558 36.1793 42.9558 35.8775 42.8413 35.5964C42.7268 35.3154 42.5187 35.1073 42.248 34.9824H42.2585Z" />
            <path d="M78.1259 22.2319C70.6109 14.7065 60.6082 10.5742 49.9706 10.5742C39.333 10.5742 29.3407 14.7169 21.8152 22.2319C6.29596 37.7512 6.29596 63.0129 21.8152 78.5426C29.5801 86.3074 39.7701 90.1794 49.9706 90.1794C60.171 90.1794 70.3611 86.297 78.1259 78.5426C93.6452 63.0233 93.6452 37.7616 78.1259 22.2319ZM72.6198 47.5145C72.651 61.639 63.6267 73.994 50.1684 78.272C50.0434 78.3136 49.9081 78.3136 49.7728 78.272C36.3144 73.994 27.2902 61.639 27.3214 47.5145V31.8911C27.3214 31.6309 27.4775 31.3915 27.7273 31.2874L49.7312 22.4921C49.8041 22.4609 49.8873 22.4505 49.9706 22.4505C50.0539 22.4505 50.1371 22.4609 50.21 22.4921L72.2138 31.2978C72.4636 31.3915 72.6198 31.6309 72.6198 31.9015V47.5249V47.5145Z" />
        </g>
        <defs>
            <clipPath id="clip0_14986_001">
                <rect width="100" height="100"/>
            </clipPath>
        </defs>
    </symbol>
    <symbol viewBox="0 0 100 100" id="m">
        <g clip-path="url(#clip0_14986_000)">
            <path d="M50.3967 99.6208C23.074 99.6208 0.851562 77.3879 0.851562 50.0756C0.851562 22.7633 23.0844 0.530518 50.3967 0.530518C77.709 0.530518 99.9418 22.7633 99.9418 50.0756C99.9418 77.3879 77.709 99.6208 50.3967 99.6208ZM50.3967 3.83004C24.8955 3.83004 4.15108 24.5744 4.15108 50.0756C4.15108 75.5768 24.8955 96.3212 50.3967 96.3212C75.8979 96.3212 96.6423 75.5768 96.6423 50.0756C96.6423 24.5744 75.8979 3.83004 50.3967 3.83004Z"/>
            <path d="M82.7174 14.7288L67.3792 30.0671L70.3968 33.0848L85.7351 17.7465L82.7174 14.7288Z"/>
            <path d="M29.9242 67.5206L14.5859 82.8589L17.6035 85.8765L32.9418 70.5382L29.9242 67.5206Z"/>
            <path d="M70.8616 67.5356L67.844 70.5532L83.1822 85.8915L86.1999 82.8738L70.8616 67.5356Z"/>
            <path d="M17.5999 14.2671L14.5823 17.2847L29.9132 32.6156L32.9308 29.598L17.5999 14.2671Z"/>
            <path d="M62.4808 51.4078C63.48 50.4085 63.48 48.7952 62.4808 47.8064L60.3574 45.6934C59.3582 44.6942 57.7449 44.6942 56.7561 45.6934L55.6111 46.8384L54.2892 45.5164C53.29 44.5172 51.6766 44.5172 50.6878 45.5164L49.5429 46.6718L48.221 45.3395C47.2217 44.3403 45.6084 44.3403 44.6195 45.3395L37.5937 52.3653C37.5417 52.4174 37.5417 52.5007 37.5937 52.5631C38.5305 53.4999 40.0606 53.4999 41.0078 52.5631L45.5355 48.0354C46.0247 47.5462 46.8158 47.5462 47.305 48.0354L47.6381 48.3684C47.7005 48.4308 47.7005 48.5245 47.6381 48.587L43.8597 52.3653C43.8077 52.4174 43.8077 52.5007 43.8597 52.5631C44.7965 53.4999 46.3266 53.4999 47.2738 52.5631L51.6142 48.2227C52.1034 47.7335 52.8945 47.7335 53.3837 48.2227L53.7167 48.5558C53.7688 48.6078 53.7688 48.6911 53.7167 48.7536L50.0737 52.3966C50.0217 52.4486 50.0217 52.5319 50.0737 52.5944C51.0105 53.5311 52.5405 53.5311 53.4877 52.5944L57.6824 48.3997C58.1716 47.9104 58.9626 47.9104 59.4519 48.3997L60.1701 49.1178C60.4511 49.3989 60.4511 49.8673 60.1701 50.1483L60.0556 50.2628C59.7745 50.5438 59.3062 50.5438 59.0251 50.2628L58.0987 49.3365C58.0467 49.2844 57.9634 49.2844 57.901 49.3365L56.2981 50.9394C56.246 50.9914 56.246 51.0747 56.2981 51.1371L57.7449 52.5839C58.7441 53.5832 60.3574 53.5832 61.3462 52.5839L62.4912 51.439L62.4808 51.4078Z" />
            <path d="M50.3978 12.084C29.414 12.084 12.4062 29.0917 12.4062 50.0755C12.4062 71.0593 29.414 88.067 50.3978 88.067C71.3816 88.067 88.3893 71.0593 88.3893 50.0755C88.3893 29.0917 71.3816 12.084 50.3978 12.084ZM51.9486 23.8145C58.0481 24.1684 63.5855 26.604 67.8738 30.4136L62.3885 35.8989C59.5261 33.4737 55.9143 31.9021 51.9486 31.569V23.8145ZM48.8572 23.8145V31.569C44.8916 31.8916 41.2798 33.4737 38.4174 35.8989L32.932 30.4136C37.2204 26.604 42.7578 24.1684 48.8572 23.8145ZM30.7463 32.5994L36.2316 38.0848C33.8064 40.9472 32.2347 44.5589 31.9016 48.5246H24.1472C24.5011 42.4252 26.9367 36.8878 30.7463 32.5994ZM24.1472 51.616H31.9016C32.2243 55.5817 33.8064 59.1935 36.2316 62.0559L30.7463 67.5412C26.9367 63.2529 24.5011 57.7155 24.1472 51.616ZM48.8572 76.3261C42.7578 75.9722 37.2204 73.5366 32.932 69.727L38.4174 64.2416C41.2798 66.6669 44.8916 68.2386 48.8572 68.5717V76.3261ZM34.4309 50.0651C34.4309 41.249 41.5817 34.0983 50.3978 34.0983C59.2139 34.0983 66.3646 41.249 66.3646 50.0651C66.3646 58.8812 59.2139 66.032 50.3978 66.032C41.5817 66.032 34.4309 58.8812 34.4309 50.0651ZM51.9486 76.3261V68.5717C55.9143 68.249 59.5261 66.6669 62.3885 64.2416L67.8738 69.727C63.5855 73.5366 58.0481 75.9722 51.9486 76.3261ZM70.0596 67.5412L64.5743 62.0559C66.9995 59.1935 68.5712 55.5817 68.9043 51.616H76.6587C76.3048 57.7155 73.8692 63.2529 70.0596 67.5412ZM68.9043 48.5246C68.5816 44.5589 66.9995 40.9472 64.5743 38.0848L70.0596 32.5994C73.8692 36.8878 76.3048 42.4252 76.6587 48.5246H68.9043Z"/>
        </g>
        <defs>
            <clipPath id="clip0_14986_000">
                <rect width="100" height="100"/>
            </clipPath>
        </defs>
    </symbol>
    <symbol viewBox="0 0 36 36" id="language-area">
        <rect x="1" y="1" width="34" height="34" rx="17" fill="#110A1D"/>
        <rect x="1" y="1" width="34" height="34" rx="17" stroke="#9DADF2" stroke-width="2"/>
        <g clip-path="url(#clip0_16395_503)">
            <path d="M25.7115 12.6486C23.9987 10.3003 21.7515 8.96884 18.7944 8.625C20.1778 10.2271 21.1293 11.9609 21.7369 13.8996C23.1203 13.6143 24.4305 13.2412 25.7115 12.6486Z" fill="#9DADF2"/>
            <path d="M13.3126 14.9036C12.7875 14.7663 12.2775 14.6329 11.7749 14.4775C11.3257 14.3326 10.8826 14.1667 10.4397 14.0009C10.1896 13.9073 9.93967 13.8138 9.68876 13.724C8.20286 16.3357 8.34194 20.0447 9.68144 22.2321C10.43 21.9969 11.1724 21.7616 11.9216 21.5243L11.923 21.5238C12.5945 21.3111 13.2718 21.0965 13.9634 20.8787C13.5682 18.9766 13.5755 17.0161 13.9708 15.0774C13.7484 15.0176 13.5292 14.9603 13.3126 14.9036Z" fill="#9DADF2"/>
            <path d="M24.1823 14.4481C23.4687 14.6749 22.7544 14.9018 22.0371 15.1286C22.4324 17.0453 22.4177 18.9913 22.0371 20.8714C23.4864 21.3323 24.8991 21.7785 26.3264 22.2248C27.7318 19.8179 27.7172 16.1601 26.3264 13.7679C25.6093 13.9946 24.8958 14.2214 24.1823 14.4481Z" fill="#9DADF2"/>
            <path d="M15.1493 20.7836C14.7393 18.9254 14.754 17.1038 15.1273 15.2822C15.4258 15.2998 15.719 15.3206 16.0085 15.3412C16.6845 15.3892 17.3407 15.4359 17.9966 15.4359C18.6525 15.4359 19.3084 15.3893 19.9843 15.3412C20.2738 15.3206 20.5675 15.2998 20.8659 15.2822C21.2685 17.0746 21.2539 18.9108 20.8586 20.7763C18.9408 20.5276 17.067 20.5129 15.1493 20.7836Z" fill="#9DADF2"/>
            <path d="M25.7116 23.3441C24.0134 25.6924 21.759 27.0165 18.8018 27.375C20.1633 25.7802 21.1368 24.0537 21.7297 22.1077C23.1058 22.3711 24.4087 22.7661 25.7116 23.3441Z" fill="#9DADF2"/>
            <path d="M17.1987 8.625C14.2415 8.97615 11.9871 10.3076 10.2303 12.7291C11.6064 13.1534 12.902 13.5557 14.2415 13.9727C14.8637 11.9463 15.8299 10.2271 17.1987 8.625Z" fill="#9DADF2"/>
            <path d="M17.1987 27.375C14.2488 27.0238 12.0017 25.6997 10.2303 23.2709C10.6691 23.1356 11.0996 23.0026 11.526 22.8708L11.5278 22.8703C12.4382 22.5889 13.3297 22.3134 14.2415 22.0346C14.8637 24.0391 15.8153 25.7729 17.1987 27.375Z" fill="#9DADF2"/>
            <path d="M20.551 14.0752C20.002 12.356 19.1602 10.8563 17.9964 9.49557C16.8252 10.8782 15.9762 12.3706 15.4491 14.0752C17.1693 14.3019 18.8382 14.3093 20.551 14.0752Z" fill="#9DADF2"/>
            <path d="M18.0037 26.5044C16.8399 25.151 15.9981 23.6513 15.4491 21.9321C17.1546 21.6907 18.8235 21.698 20.5583 21.9248C20.0093 23.6367 19.1675 25.1291 18.0037 26.5044Z" fill="#9DADF2"/>
        </g>
        <defs>
            <clipPath id="clip0_16395_503">
                <rect width="20" height="20" fill="white" transform="translate(8 8)"/>
            </clipPath>
        </defs>
    </symbol>
    <symbol viewBox="0 0 36 36" id="burger">
        <path d="M8.66667 25H27.3333C27.975 25 28.5 24.475 28.5 23.8333C28.5 23.1917 27.975 22.6667 27.3333 22.6667H8.66667C8.025 22.6667 7.5 23.1917 7.5 23.8333C7.5 24.475 8.025 25 8.66667 25ZM8.66667 19.1667H27.3333C27.975 19.1667 28.5 18.6417 28.5 18C28.5 17.3583 27.975 16.8333 27.3333 16.8333H8.66667C8.025 16.8333 7.5 17.3583 7.5 18C7.5 18.6417 8.025 19.1667 8.66667 19.1667ZM7.5 12.1667C7.5 12.8083 8.025 13.3333 8.66667 13.3333H27.3333C27.975 13.3333 28.5 12.8083 28.5 12.1667C28.5 11.525 27.975 11 27.3333 11H8.66667C8.025 11 7.5 11.525 7.5 12.1667Z" fill="white"/>
    </symbol>
    <symbol viewBox="0 0 36 36" id="close">
        <g clip-path="url(#clip0_16395_12)">
            <path d="M26.1666 11.4783L24.5216 9.83325L17.9999 16.3549L11.4783 9.83325L9.83325 11.4783L16.3549 17.9999L9.83325 24.5216L11.4783 26.1666L17.9999 19.6449L24.5216 26.1666L26.1666 24.5216L19.6449 17.9999L26.1666 11.4783Z" fill="white"/>
        </g>
        <defs>
            <clipPath id="clip0_16395_12">
                <rect width="28" height="28" fill="white" transform="translate(4 4)"/>
            </clipPath>
        </defs>
    </symbol>
    <symbol viewBox="0 0 36 36" id="cross">
        <g clip-path="url(#clip0_16395_12)">
            <path d="M26.1666 11.4783L24.5216 9.83325L17.9999 16.3549L11.4783 9.83325L9.83325 11.4783L16.3549 17.9999L9.83325 24.5216L11.4783 26.1666L17.9999 19.6449L24.5216 26.1666L26.1666 24.5216L19.6449 17.9999L26.1666 11.4783Z" fill="white"/>
        </g>
        <defs>
            <clipPath id="clip0_16395_12">
                <rect width="28" height="28" fill="white" transform="translate(4 4)"/>
            </clipPath>
        </defs>
    </symbol>
</svg>
